<svg width="40px" height="40px" viewBox="0 0 40 40" fill="none" xmlns="http://www.w3.org/2000/svg" transform="rotate(0) scale(1, 1)">
<path d="M36.5333 12.0833V12.3L34.0999 21.3C33.8124 22.3682 33.1786 23.3109 32.298 23.9804C31.4173 24.6499 30.3395 25.0085 29.2333 25H16.4833C15.2316 25.005 14.0235 24.5405 13.0978 23.698C12.172 22.8556 11.5959 21.6966 11.4833 20.45L10.4 8.18329C10.3624 7.76776 10.1704 7.38142 9.86178 7.10061C9.5532 6.81979 9.15051 6.66493 8.73328 6.66663H5.11662C4.67459 6.66663 4.25067 6.49103 3.93811 6.17847C3.62555 5.86591 3.44995 5.44199 3.44995 4.99996C3.44995 4.55793 3.62555 4.13401 3.93811 3.82145C4.25067 3.50889 4.67459 3.33329 5.11662 3.33329H8.73328C9.98496 3.32821 11.193 3.79279 12.1188 4.63523C13.0445 5.47766 13.6206 6.63668 13.7333 7.88329V8.33329H33.2166C33.6917 8.32957 34.1622 8.42745 34.5964 8.62039C35.0305 8.81333 35.4185 9.09686 35.7341 9.45198C36.0498 9.8071 36.2859 10.2256 36.4266 10.6794C36.5673 11.1332 36.6094 11.6119 36.5499 12.0833H36.5333Z" fill="#f8fdfe"/>
<path d="M15.1166 36.6667C17.4178 36.6667 19.2833 34.8012 19.2833 32.5C19.2833 30.1989 17.4178 28.3334 15.1166 28.3334C12.8154 28.3334 10.95 30.1989 10.95 32.5C10.95 34.8012 12.8154 36.6667 15.1166 36.6667Z" fill="#f8fdfe"/>
<path d="M28.45 36.6667C30.7512 36.6667 32.6167 34.8012 32.6167 32.5C32.6167 30.1989 30.7512 28.3334 28.45 28.3334C26.1488 28.3334 24.2833 30.1989 24.2833 32.5C24.2833 34.8012 26.1488 36.6667 28.45 36.6667Z" fill="#f8fdfe"/>
<path d="M23.188 21.168C22.448 21.168 21.814 20.978 21.286 20.598C20.758 20.218 20.352 19.694 20.068 19.026C19.788 18.358 19.648 17.592 19.648 16.728C19.648 15.864 19.798 15.11 20.098 14.466C20.398 13.822 20.814 13.322 21.346 12.966C21.878 12.61 22.492 12.432 23.188 12.432C23.9 12.432 24.52 12.61 25.048 12.966C25.58 13.322 25.992 13.822 26.284 14.466C26.58 15.11 26.728 15.864 26.728 16.728C26.728 17.592 26.588 18.358 26.308 19.026C26.028 19.694 25.624 20.218 25.096 20.598C24.568 20.978 23.932 21.168 23.188 21.168ZM23.188 20.136C23.684 20.136 24.104 20.004 24.448 19.74C24.796 19.476 25.06 19.09 25.24 18.582C25.424 18.074 25.516 17.456 25.516 16.728C25.516 15.636 25.304 14.82 24.88 14.28C24.46 13.736 23.896 13.464 23.188 13.464C22.516 13.464 21.96 13.736 21.52 14.28C21.08 14.82 20.86 15.636 20.86 16.728C20.86 17.456 20.95 18.074 21.13 18.582C21.314 19.09 21.578 19.476 21.922 19.74C22.27 20.004 22.692 20.136 23.188 20.136Z" fill="#f8fdfe"/>
</svg>