<svg width="40" height="40" fill="none" xmlns="http://www.w3.org/2000/svg"><path d="M36.533 12.083v.217l-2.433 9a5 5 0 0 1-4.867 3.7h-12.75a5 5 0 0 1-5-4.55L10.4 8.183a1.667 1.667 0 0 0-1.667-1.516H5.117a1.667 1.667 0 0 1 0-3.334h3.616a5 5 0 0 1 5 4.55v.45h19.484a3.334 3.334 0 0 1 3.333 3.75h-.017ZM15.117 36.667a4.167 4.167 0 1 0 0-8.334 4.167 4.167 0 0 0 0 8.334Zm13.333 0a4.167 4.167 0 1 0 0-8.334 4.167 4.167 0 0 0 0 8.334Z" fill="#f8fdfe"/><path d="M23.188 21.168c-.74 0-1.374-.19-1.902-.57-.528-.38-.934-.904-1.218-1.572-.28-.668-.42-1.434-.42-2.298 0-.864.15-1.618.45-2.262.3-.644.716-1.144 1.248-1.5.532-.356 1.146-.534 1.842-.534.712 0 1.332.178 1.86.534.532.356.944.856 1.236 1.5.296.644.444 1.398.444 2.262 0 .864-.14 1.63-.42 2.298-.28.668-.684 1.192-1.212 1.572-.528.38-1.164.57-1.908.57Zm0-1.032c.496 0 .916-.132 1.26-.396.348-.264.612-.65.792-1.158.184-.508.276-1.126.276-1.854 0-1.092-.212-1.908-.636-2.448-.42-.544-.984-.816-1.692-.816-.672 0-1.228.272-1.668.816-.44.54-.66 1.356-.66 2.448 0 .728.09 1.346.27 1.854.184.508.448.894.792 1.158.348.264.77.396 1.266.396Z" fill="#f8fdfe"/></svg>